<svg width="100" height="100" viewBox="0 0 100 100" fill="none" xmlns="http://www.w3.org/2000/svg">
<path fill-rule="evenodd" clip-rule="evenodd" d="M30 20.5C21.4396 20.5 14.5 27.4396 14.5 36V56C14.5 62.7449 18.8096 68.4897 24.8331 70.6187C25.8321 70.9718 26.5 71.9162 26.5 72.9758V80.6624L36.7995 72.0794C37.2488 71.705 37.8152 71.5 38.4 71.5H70C78.5604 71.5 85.5 64.5604 85.5 56V36C85.5 27.4396 78.5604 20.5 70 20.5H30ZM9.5 36C9.5 24.6782 18.6782 15.5 30 15.5H70C81.3218 15.5 90.5 24.6782 90.5 36V56C90.5 67.3218 81.3218 76.5 70 76.5H39.3051L27.2406 86.5537C24.961 88.4534 21.5 86.8324 21.5 83.865V74.6595C14.4231 71.4306 9.5 64.293 9.5 56V36Z" fill="black" stroke="black" stroke-width="3" stroke-linejoin="round"/>
<path d="M39 46C39 49.3137 36.3137 52 33 52C29.6863 52 27 49.3137 27 46C27 42.6863 29.6863 40 33 40C36.3137 40 39 42.6863 39 46Z" fill="black"/>
<path d="M57 46C57 49.3137 54.3137 52 51 52C47.6863 52 45 49.3137 45 46C45 42.6863 47.6863 40 51 40C54.3137 40 57 42.6863 57 46Z" fill="black"/>
<path d="M75 46C75 49.3137 72.3137 52 69 52C65.6863 52 63 49.3137 63 46C63 42.6863 65.6863 40 69 40C72.3137 40 75 42.6863 75 46Z" fill="black"/>
</svg>
