<svg width="36" height="36" viewBox="0 0 36 36" fill="none" xmlns="http://www.w3.org/2000/svg">
<path d="M29.8945 11.25C31.0664 10.3486 32.1211 9.26683 33 7.94471C31.8281 8.48558 30.6562 8.84615 29.4844 8.96635C30.7734 8.125 31.7109 6.98317 32.1797 5.48077C30.9492 6.20192 29.6602 6.74279 28.2539 6.98317C27.668 6.38221 26.9648 5.90144 26.2031 5.54087C25.4414 5.18029 24.6211 5 23.7422 5C22.6289 5 21.6328 5.30048 20.6953 5.84135C19.7578 6.44231 18.9961 7.22356 18.4688 8.1851C17.8828 9.14663 17.6484 10.2284 17.6484 11.3101C17.6484 11.7909 17.6484 12.2716 17.7656 12.7524C15.2461 12.6322 12.9023 12.0313 10.6758 10.8293C8.44922 9.6875 6.63281 8.125 5.10938 6.14183C4.52344 7.16346 4.23047 8.24519 4.23047 9.32692C4.23047 10.4087 4.46484 11.4303 4.99219 12.3317C5.46094 13.2933 6.16406 14.0144 6.98438 14.6154C5.98828 14.6154 5.05078 14.3149 4.23047 13.774V13.8942C4.23047 15.3966 4.69922 16.7188 5.63672 17.8606C6.57422 19.0625 7.74609 19.7837 9.15234 20.0841C8.56641 20.2043 8.03906 20.2644 7.51172 20.2644C7.16016 20.2644 6.75 20.2644 6.39844 20.2043C6.75 21.4663 7.45312 22.488 8.50781 23.3293C9.5625 24.1707 10.7344 24.5313 12.1406 24.5313C9.85547 26.3341 7.27734 27.2356 4.46484 27.2356C3.87891 27.2356 3.41016 27.2356 3 27.1755C5.8125 29.0986 8.97656 30 12.4336 30C16.0078 30 19.1719 29.0986 21.9844 27.1755C24.5039 25.4928 26.4961 23.2692 27.9023 20.3846C29.25 17.7404 29.9531 14.9159 29.9531 12.0313C29.9531 11.6707 29.8945 11.4303 29.8945 11.25Z" fill="black"/>
</svg>
